<mxfile host="app.diagrams.net" modified="2024-01-10T16:08:57.844Z" agent="Mozilla/5.0 (X11; Linux x86_64) AppleWebKit/537.36 (KHTML, like Gecko) Chrome/120.0.0.0 Safari/537.36" etag="DwI-0KqlFTEkZLTY9AXX" version="22.1.18" type="device">
  <diagram name="Page-1" id="fu1geaqnW-9D8BklP9Hh">
    <mxGraphModel dx="1195" dy="651" grid="1" gridSize="10" guides="1" tooltips="1" connect="1" arrows="1" fold="1" page="1" pageScale="1" pageWidth="850" pageHeight="1100" math="1" shadow="0">
      <root>
        <mxCell id="0" />
        <mxCell id="1" parent="0" />
        <mxCell id="atAiUvy_6sOID0HwvwlK-1" value="&lt;font style=&quot;font-size: 15px;&quot;&gt;&lt;svg xmlns:xlink=&quot;http://www.w3.org/1999/xlink&quot; viewBox=&quot;0 -883.2 901.6 894.2&quot; role=&quot;img&quot; height=&quot;2.023ex&quot; width=&quot;2.04ex&quot; xmlns=&quot;http://www.w3.org/2000/svg&quot; style=&quot;vertical-align: -0.025ex; font-size: 15px;&quot;&gt;&lt;defs style=&quot;font-size: 15px;&quot;&gt;&lt;path d=&quot;M347 338Q337 338 294 349T231 360Q211 360 197 356T174 346T162 335T155 324L153 320Q150 317 138 317Q117 317 117 325Q117 330 120 339Q133 378 163 406T229 440Q241 442 246 442Q271 442 291 425T329 392T367 375Q389 375 411 408T434 441Q435 442 449 442H462Q468 436 468 434Q468 430 463 420T449 399T432 377T418 358L411 349Q368 298 275 214T160 106L148 94L163 93Q185 93 227 82T290 71Q328 71 360 90T402 140Q406 149 409 151T424 153Q443 153 443 143Q443 138 442 134Q425 72 376 31T278 -11Q252 -11 232 6T193 40T155 57Q111 57 76 -3Q70 -11 59 -11H54H41Q35 -5 35 -2Q35 13 93 84Q132 129 225 214T340 322Q352 338 347 338Z&quot; id=&quot;MJX-2-TEX-I-1D467&quot; style=&quot;font-size: 15px;&quot;&gt;&lt;/path&gt;&lt;path d=&quot;M127 463Q100 463 85 480T69 524Q69 579 117 622T233 665Q268 665 277 664Q351 652 390 611T430 522Q430 470 396 421T302 350L299 348Q299 347 308 345T337 336T375 315Q457 262 457 175Q457 96 395 37T238 -22Q158 -22 100 21T42 130Q42 158 60 175T105 193Q133 193 151 175T169 130Q169 119 166 110T159 94T148 82T136 74T126 70T118 67L114 66Q165 21 238 21Q293 21 321 74Q338 107 338 175V195Q338 290 274 322Q259 328 213 329L171 330L168 332Q166 335 166 348Q166 366 174 366Q202 366 232 371Q266 376 294 413T322 525V533Q322 590 287 612Q265 626 240 626Q208 626 181 615T143 592T132 580H135Q138 579 143 578T153 573T165 566T175 555T183 540T186 520Q186 498 172 481T127 463Z&quot; id=&quot;MJX-2-TEX-N-33&quot; style=&quot;font-size: 15px;&quot;&gt;&lt;/path&gt;&lt;/defs&gt;&lt;g transform=&quot;scale(1,-1)&quot; stroke-width=&quot;0&quot; fill=&quot;currentColor&quot; stroke=&quot;currentColor&quot; style=&quot;font-size: 15px;&quot;&gt;&lt;g data-mml-node=&quot;math&quot; style=&quot;font-size: 15px;&quot;&gt;&lt;g data-mml-node=&quot;msup&quot; style=&quot;font-size: 15px;&quot;&gt;&lt;g data-mml-node=&quot;mi&quot; style=&quot;font-size: 15px;&quot;&gt;&lt;use xlink:href=&quot;#MJX-2-TEX-I-1D467&quot; data-c=&quot;1D467&quot; style=&quot;font-size: 15px;&quot;&gt;&lt;/use&gt;&lt;/g&gt;&lt;g transform=&quot;translate(498,413) scale(0.707)&quot; data-mml-node=&quot;mn&quot; style=&quot;font-size: 15px;&quot;&gt;&lt;use xlink:href=&quot;#MJX-2-TEX-N-33&quot; data-c=&quot;33&quot; style=&quot;font-size: 15px;&quot;&gt;&lt;/use&gt;&lt;/g&gt;&lt;/g&gt;&lt;/g&gt;&lt;/g&gt;&lt;/svg&gt;&lt;/font&gt;" style="rounded=0;whiteSpace=wrap;html=1;fontSize=15;" parent="1" vertex="1">
          <mxGeometry x="320" y="40" width="60" height="40" as="geometry" />
        </mxCell>
        <mxCell id="atAiUvy_6sOID0HwvwlK-3" value="$$z^2$$" style="rounded=0;whiteSpace=wrap;html=1;fontSize=15;" parent="1" vertex="1">
          <mxGeometry x="320" y="200" width="60" height="40" as="geometry" />
        </mxCell>
        <mxCell id="atAiUvy_6sOID0HwvwlK-4" value="$$z^1$$" style="rounded=0;whiteSpace=wrap;html=1;fontSize=15;" parent="1" vertex="1">
          <mxGeometry x="320" y="359.3" width="60" height="40" as="geometry" />
        </mxCell>
        <mxCell id="atAiUvy_6sOID0HwvwlK-5" value="$$z^0$$" style="rounded=0;whiteSpace=wrap;html=1;fontSize=15;" parent="1" vertex="1">
          <mxGeometry x="320" y="521.33" width="60" height="40" as="geometry" />
        </mxCell>
        <mxCell id="atAiUvy_6sOID0HwvwlK-6" value="$$\mu^2$$" style="rounded=0;whiteSpace=wrap;html=1;fontSize=15;" parent="1" vertex="1">
          <mxGeometry x="320" y="130" width="60" height="40" as="geometry" />
        </mxCell>
        <mxCell id="atAiUvy_6sOID0HwvwlK-7" value="$$\mu^1$$" style="rounded=0;whiteSpace=wrap;html=1;fontSize=15;" parent="1" vertex="1">
          <mxGeometry x="320" y="289.3" width="60" height="40" as="geometry" />
        </mxCell>
        <mxCell id="atAiUvy_6sOID0HwvwlK-8" value="" style="endArrow=classic;html=1;rounded=0;exitX=0.5;exitY=1;exitDx=0;exitDy=0;entryX=0.5;entryY=0;entryDx=0;entryDy=0;" parent="1" source="atAiUvy_6sOID0HwvwlK-1" target="atAiUvy_6sOID0HwvwlK-6" edge="1">
          <mxGeometry width="50" height="50" relative="1" as="geometry">
            <mxPoint x="350" y="90" as="sourcePoint" />
            <mxPoint x="520" y="80" as="targetPoint" />
          </mxGeometry>
        </mxCell>
        <mxCell id="atAiUvy_6sOID0HwvwlK-38" value="$$W^3$$" style="edgeLabel;html=1;align=center;verticalAlign=middle;resizable=0;points=[];" parent="atAiUvy_6sOID0HwvwlK-8" vertex="1" connectable="0">
          <mxGeometry x="-0.1034" y="-2" relative="1" as="geometry">
            <mxPoint x="-18" as="offset" />
          </mxGeometry>
        </mxCell>
        <mxCell id="atAiUvy_6sOID0HwvwlK-9" value="" style="endArrow=classic;html=1;rounded=0;exitX=0.5;exitY=1;exitDx=0;exitDy=0;entryX=0.5;entryY=0;entryDx=0;entryDy=0;" parent="1" source="atAiUvy_6sOID0HwvwlK-3" target="atAiUvy_6sOID0HwvwlK-7" edge="1">
          <mxGeometry width="50" height="50" relative="1" as="geometry">
            <mxPoint x="450" y="260" as="sourcePoint" />
            <mxPoint x="500" y="210" as="targetPoint" />
          </mxGeometry>
        </mxCell>
        <mxCell id="atAiUvy_6sOID0HwvwlK-39" value="$$W^2$$" style="edgeLabel;html=1;align=center;verticalAlign=middle;resizable=0;points=[];" parent="atAiUvy_6sOID0HwvwlK-9" vertex="1" connectable="0">
          <mxGeometry x="0.0212" relative="1" as="geometry">
            <mxPoint x="-20" as="offset" />
          </mxGeometry>
        </mxCell>
        <mxCell id="atAiUvy_6sOID0HwvwlK-10" value="&lt;font style=&quot;font-size: 15px;&quot;&gt;$$e^2$$&lt;/font&gt;" style="rhombus;whiteSpace=wrap;html=1;" parent="1" vertex="1">
          <mxGeometry x="410" y="160" width="50" height="50" as="geometry" />
        </mxCell>
        <mxCell id="atAiUvy_6sOID0HwvwlK-11" value="" style="endArrow=classic;html=1;rounded=0;exitX=0.5;exitY=1;exitDx=0;exitDy=0;entryX=0.5;entryY=0;entryDx=0;entryDy=0;" parent="1" source="atAiUvy_6sOID0HwvwlK-4" target="atAiUvy_6sOID0HwvwlK-14" edge="1">
          <mxGeometry width="50" height="50" relative="1" as="geometry">
            <mxPoint x="420" y="489.3" as="sourcePoint" />
            <mxPoint x="470" y="439.3" as="targetPoint" />
          </mxGeometry>
        </mxCell>
        <mxCell id="atAiUvy_6sOID0HwvwlK-40" value="$$W^1$$" style="edgeLabel;html=1;align=center;verticalAlign=middle;resizable=0;points=[];" parent="atAiUvy_6sOID0HwvwlK-11" vertex="1" connectable="0">
          <mxGeometry x="-0.1911" y="1" relative="1" as="geometry">
            <mxPoint x="-21" as="offset" />
          </mxGeometry>
        </mxCell>
        <mxCell id="atAiUvy_6sOID0HwvwlK-12" value="&lt;font style=&quot;font-size: 15px;&quot;&gt;$$e^1$$&lt;/font&gt;" style="rhombus;whiteSpace=wrap;html=1;" parent="1" vertex="1">
          <mxGeometry x="410" y="319.3" width="50" height="50" as="geometry" />
        </mxCell>
        <mxCell id="atAiUvy_6sOID0HwvwlK-13" value="" style="endArrow=classic;html=1;rounded=0;exitX=1;exitY=0.5;exitDx=0;exitDy=0;entryX=0;entryY=0;entryDx=0;entryDy=0;dashed=1;dashPattern=1 1;" parent="1" source="atAiUvy_6sOID0HwvwlK-6" target="atAiUvy_6sOID0HwvwlK-10" edge="1">
          <mxGeometry width="50" height="50" relative="1" as="geometry">
            <mxPoint x="500" y="120" as="sourcePoint" />
            <mxPoint x="550" y="70" as="targetPoint" />
          </mxGeometry>
        </mxCell>
        <mxCell id="atAiUvy_6sOID0HwvwlK-14" value="$$\mu^0$$" style="rounded=0;whiteSpace=wrap;html=1;fontSize=15;" parent="1" vertex="1">
          <mxGeometry x="320" y="451.33000000000004" width="60" height="40" as="geometry" />
        </mxCell>
        <mxCell id="atAiUvy_6sOID0HwvwlK-15" value="&lt;font style=&quot;font-size: 15px;&quot;&gt;$$e^0$$&lt;/font&gt;" style="rhombus;whiteSpace=wrap;html=1;" parent="1" vertex="1">
          <mxGeometry x="410" y="491.33000000000004" width="50" height="50" as="geometry" />
        </mxCell>
        <mxCell id="atAiUvy_6sOID0HwvwlK-16" value="" style="endArrow=classic;html=1;rounded=0;entryX=0;entryY=1;entryDx=0;entryDy=0;exitX=1;exitY=0.5;exitDx=0;exitDy=0;dashed=1;dashPattern=1 1;" parent="1" source="atAiUvy_6sOID0HwvwlK-3" target="atAiUvy_6sOID0HwvwlK-10" edge="1">
          <mxGeometry width="50" height="50" relative="1" as="geometry">
            <mxPoint x="390" y="290" as="sourcePoint" />
            <mxPoint x="440" y="240" as="targetPoint" />
          </mxGeometry>
        </mxCell>
        <mxCell id="atAiUvy_6sOID0HwvwlK-17" value="" style="endArrow=classic;html=1;rounded=0;exitX=1;exitY=0.5;exitDx=0;exitDy=0;entryX=0;entryY=0;entryDx=0;entryDy=0;dashed=1;dashPattern=1 1;" parent="1" source="atAiUvy_6sOID0HwvwlK-7" target="atAiUvy_6sOID0HwvwlK-12" edge="1">
          <mxGeometry width="50" height="50" relative="1" as="geometry">
            <mxPoint x="400" y="319.3" as="sourcePoint" />
            <mxPoint x="450" y="269.3" as="targetPoint" />
          </mxGeometry>
        </mxCell>
        <mxCell id="atAiUvy_6sOID0HwvwlK-18" value="" style="endArrow=classic;html=1;rounded=0;exitX=1;exitY=0.5;exitDx=0;exitDy=0;entryX=0;entryY=1;entryDx=0;entryDy=0;dashed=1;dashPattern=1 1;" parent="1" source="atAiUvy_6sOID0HwvwlK-4" target="atAiUvy_6sOID0HwvwlK-12" edge="1">
          <mxGeometry width="50" height="50" relative="1" as="geometry">
            <mxPoint x="430" y="469.3" as="sourcePoint" />
            <mxPoint x="480" y="419.3" as="targetPoint" />
          </mxGeometry>
        </mxCell>
        <mxCell id="atAiUvy_6sOID0HwvwlK-19" value="" style="endArrow=classic;html=1;rounded=0;exitX=1;exitY=0.5;exitDx=0;exitDy=0;entryX=0;entryY=0;entryDx=0;entryDy=0;dashed=1;dashPattern=1 1;" parent="1" source="atAiUvy_6sOID0HwvwlK-14" target="atAiUvy_6sOID0HwvwlK-15" edge="1">
          <mxGeometry width="50" height="50" relative="1" as="geometry">
            <mxPoint x="480" y="511.33000000000004" as="sourcePoint" />
            <mxPoint x="530" y="461.33000000000004" as="targetPoint" />
          </mxGeometry>
        </mxCell>
        <mxCell id="atAiUvy_6sOID0HwvwlK-20" value="" style="endArrow=classic;html=1;rounded=0;exitX=1;exitY=0.5;exitDx=0;exitDy=0;entryX=0;entryY=1;entryDx=0;entryDy=0;dashed=1;dashPattern=1 1;" parent="1" source="atAiUvy_6sOID0HwvwlK-5" target="atAiUvy_6sOID0HwvwlK-15" edge="1">
          <mxGeometry width="50" height="50" relative="1" as="geometry">
            <mxPoint x="450" y="651.33" as="sourcePoint" />
            <mxPoint x="500" y="601.33" as="targetPoint" />
          </mxGeometry>
        </mxCell>
        <mxCell id="atAiUvy_6sOID0HwvwlK-22" value="" style="curved=1;endArrow=classic;html=1;rounded=0;exitX=1;exitY=0;exitDx=0;exitDy=0;entryX=1;entryY=0.75;entryDx=0;entryDy=0;" parent="1" source="atAiUvy_6sOID0HwvwlK-15" target="atAiUvy_6sOID0HwvwlK-4" edge="1">
          <mxGeometry width="50" height="50" relative="1" as="geometry">
            <mxPoint x="430" y="499.3" as="sourcePoint" />
            <mxPoint x="480" y="449.3" as="targetPoint" />
            <Array as="points">
              <mxPoint x="470" y="459.3" />
              <mxPoint x="440" y="409.3" />
            </Array>
          </mxGeometry>
        </mxCell>
        <mxCell id="atAiUvy_6sOID0HwvwlK-35" value="$$E^1$$" style="edgeLabel;html=1;align=center;verticalAlign=middle;resizable=0;points=[];" parent="atAiUvy_6sOID0HwvwlK-22" vertex="1" connectable="0">
          <mxGeometry x="-0.0502" y="1" relative="1" as="geometry">
            <mxPoint x="22" as="offset" />
          </mxGeometry>
        </mxCell>
        <mxCell id="atAiUvy_6sOID0HwvwlK-23" value="" style="curved=1;endArrow=classic;html=1;rounded=0;entryX=1;entryY=0.75;entryDx=0;entryDy=0;" parent="1" source="atAiUvy_6sOID0HwvwlK-10" target="atAiUvy_6sOID0HwvwlK-1" edge="1">
          <mxGeometry width="50" height="50" relative="1" as="geometry">
            <mxPoint x="460" y="110" as="sourcePoint" />
            <mxPoint x="510" y="60" as="targetPoint" />
            <Array as="points">
              <mxPoint x="460" y="140" />
              <mxPoint x="430" y="90" />
            </Array>
          </mxGeometry>
        </mxCell>
        <mxCell id="atAiUvy_6sOID0HwvwlK-33" value="$$E^3$$" style="edgeLabel;html=1;align=center;verticalAlign=middle;resizable=0;points=[];" parent="atAiUvy_6sOID0HwvwlK-23" vertex="1" connectable="0">
          <mxGeometry x="-0.1608" y="1" relative="1" as="geometry">
            <mxPoint x="17" y="-3" as="offset" />
          </mxGeometry>
        </mxCell>
        <mxCell id="atAiUvy_6sOID0HwvwlK-24" value="" style="curved=1;endArrow=classic;html=1;rounded=0;exitX=1;exitY=0;exitDx=0;exitDy=0;entryX=1;entryY=0.75;entryDx=0;entryDy=0;" parent="1" source="atAiUvy_6sOID0HwvwlK-12" target="atAiUvy_6sOID0HwvwlK-3" edge="1">
          <mxGeometry width="50" height="50" relative="1" as="geometry">
            <mxPoint x="450" y="330" as="sourcePoint" />
            <mxPoint x="500" y="280" as="targetPoint" />
            <Array as="points">
              <mxPoint x="470" y="290" />
              <mxPoint x="440" y="240" />
            </Array>
          </mxGeometry>
        </mxCell>
        <mxCell id="atAiUvy_6sOID0HwvwlK-34" value="&lt;div&gt;$$E^2$$&lt;/div&gt;" style="edgeLabel;html=1;align=center;verticalAlign=middle;resizable=0;points=[];" parent="atAiUvy_6sOID0HwvwlK-24" vertex="1" connectable="0">
          <mxGeometry x="-0.0767" y="-1" relative="1" as="geometry">
            <mxPoint x="19" as="offset" />
          </mxGeometry>
        </mxCell>
        <mxCell id="atAiUvy_6sOID0HwvwlK-25" value="" style="curved=1;endArrow=classic;html=1;rounded=0;exitX=0;exitY=0.5;exitDx=0;exitDy=0;entryX=1;entryY=0.25;entryDx=0;entryDy=0;dashed=1;dashPattern=1 1;" parent="1" source="atAiUvy_6sOID0HwvwlK-12" target="atAiUvy_6sOID0HwvwlK-4" edge="1">
          <mxGeometry width="50" height="50" relative="1" as="geometry">
            <mxPoint x="510" y="369.3" as="sourcePoint" />
            <mxPoint x="390" y="359.3" as="targetPoint" />
            <Array as="points">
              <mxPoint x="390" y="344.3" />
            </Array>
          </mxGeometry>
        </mxCell>
        <mxCell id="atAiUvy_6sOID0HwvwlK-26" value="" style="curved=1;endArrow=classic;html=1;rounded=0;exitX=0;exitY=0.5;exitDx=0;exitDy=0;entryX=1;entryY=0.25;entryDx=0;entryDy=0;dashed=1;dashPattern=1 1;" parent="1" source="atAiUvy_6sOID0HwvwlK-10" target="atAiUvy_6sOID0HwvwlK-3" edge="1">
          <mxGeometry width="50" height="50" relative="1" as="geometry">
            <mxPoint x="500" y="230" as="sourcePoint" />
            <mxPoint x="550" y="180" as="targetPoint" />
            <Array as="points">
              <mxPoint x="390" y="185" />
            </Array>
          </mxGeometry>
        </mxCell>
        <mxCell id="atAiUvy_6sOID0HwvwlK-29" value="" style="curved=1;endArrow=classic;html=1;rounded=0;exitX=0;exitY=0.5;exitDx=0;exitDy=0;entryX=1;entryY=0.25;entryDx=0;entryDy=0;dashed=1;dashPattern=1 1;" parent="1" source="atAiUvy_6sOID0HwvwlK-15" target="atAiUvy_6sOID0HwvwlK-5" edge="1">
          <mxGeometry width="50" height="50" relative="1" as="geometry">
            <mxPoint x="500" y="491.33000000000004" as="sourcePoint" />
            <mxPoint x="550" y="441.33000000000004" as="targetPoint" />
            <Array as="points">
              <mxPoint x="390" y="516.33" />
            </Array>
          </mxGeometry>
        </mxCell>
        <mxCell id="atAiUvy_6sOID0HwvwlK-30" value="" style="curved=1;endArrow=classic;html=1;rounded=0;exitX=0;exitY=0.5;exitDx=0;exitDy=0;entryX=0;entryY=0.5;entryDx=0;entryDy=0;" parent="1" source="atAiUvy_6sOID0HwvwlK-1" target="atAiUvy_6sOID0HwvwlK-7" edge="1">
          <mxGeometry width="50" height="50" relative="1" as="geometry">
            <mxPoint x="180" y="200" as="sourcePoint" />
            <mxPoint x="260" y="250" as="targetPoint" />
            <Array as="points">
              <mxPoint x="240" y="170" />
            </Array>
          </mxGeometry>
        </mxCell>
        <mxCell id="T0ZQRzIu6jH0cw3Xytkt-1" value="$$M^3$$" style="edgeLabel;html=1;align=center;verticalAlign=middle;resizable=0;points=[];" vertex="1" connectable="0" parent="atAiUvy_6sOID0HwvwlK-30">
          <mxGeometry x="-0.2747" y="25" relative="1" as="geometry">
            <mxPoint x="-17" y="-12" as="offset" />
          </mxGeometry>
        </mxCell>
        <mxCell id="atAiUvy_6sOID0HwvwlK-31" value="" style="curved=1;endArrow=classic;html=1;rounded=0;exitX=0;exitY=0.5;exitDx=0;exitDy=0;entryX=0;entryY=0.5;entryDx=0;entryDy=0;" parent="1" source="atAiUvy_6sOID0HwvwlK-3" target="atAiUvy_6sOID0HwvwlK-14" edge="1">
          <mxGeometry width="50" height="50" relative="1" as="geometry">
            <mxPoint x="180" y="270" as="sourcePoint" />
            <mxPoint x="230" y="220" as="targetPoint" />
            <Array as="points">
              <mxPoint x="240" y="310" />
            </Array>
          </mxGeometry>
        </mxCell>
        <mxCell id="T0ZQRzIu6jH0cw3Xytkt-2" value="$$M^2$$" style="edgeLabel;html=1;align=center;verticalAlign=middle;resizable=0;points=[];" vertex="1" connectable="0" parent="atAiUvy_6sOID0HwvwlK-31">
          <mxGeometry x="0.0753" y="23" relative="1" as="geometry">
            <mxPoint x="-19" as="offset" />
          </mxGeometry>
        </mxCell>
      </root>
    </mxGraphModel>
  </diagram>
</mxfile>
